<svg width="177" height="45" viewBox="0 0 177 45" fill="none" xmlns="http://www.w3.org/2000/svg">
<path d="M65.4347 29V14.4545H71.0028C72.054 14.4545 72.9276 14.6203 73.6236 14.9517C74.3243 15.2784 74.8475 15.7259 75.1932 16.294C75.5436 16.8622 75.7188 17.5062 75.7188 18.2259C75.7188 18.8177 75.6051 19.3243 75.3778 19.7457C75.1506 20.1624 74.8452 20.5009 74.4616 20.7614C74.0781 21.0218 73.6496 21.2088 73.1761 21.3224V21.4645C73.6922 21.4929 74.187 21.6515 74.6605 21.9403C75.1387 22.2244 75.5294 22.6269 75.8324 23.1477C76.1354 23.6686 76.2869 24.2983 76.2869 25.0369C76.2869 25.7898 76.1046 26.4669 75.7401 27.0682C75.3755 27.6648 74.8262 28.1359 74.0923 28.4815C73.3584 28.8272 72.4351 29 71.3224 29H65.4347ZM68.0696 26.7983H70.9034C71.8598 26.7983 72.5488 26.616 72.9702 26.2514C73.3963 25.8821 73.6094 25.4086 73.6094 24.831C73.6094 24.4001 73.5028 24.0118 73.2898 23.6662C73.0767 23.3158 72.7737 23.0412 72.3807 22.8423C71.9877 22.6387 71.5189 22.5369 70.9744 22.5369H68.0696V26.7983ZM68.0696 20.6406H70.6761C71.1307 20.6406 71.5402 20.5578 71.9048 20.392C72.2694 20.2216 72.5559 19.9825 72.7642 19.6747C72.9773 19.3622 73.0838 18.9929 73.0838 18.5668C73.0838 18.0033 72.8849 17.5393 72.4872 17.1747C72.0942 16.8101 71.5095 16.6278 70.733 16.6278H68.0696V20.6406ZM85.4187 24.4119V18.0909H87.9897V29H85.4968V27.0611H85.3832C85.137 27.6719 84.7321 28.1714 84.1687 28.5597C83.61 28.9479 82.921 29.142 82.1019 29.142C81.387 29.142 80.7549 28.9834 80.2056 28.6662C79.6611 28.3442 79.235 27.8778 78.9272 27.267C78.6194 26.6515 78.4656 25.9081 78.4656 25.0369V18.0909H81.0366V24.6392C81.0366 25.3305 81.226 25.8797 81.6048 26.2869C81.9835 26.6941 82.4807 26.8977 83.0962 26.8977C83.475 26.8977 83.842 26.8054 84.1971 26.6207C84.5522 26.4361 84.8434 26.1615 85.0707 25.7969C85.3027 25.4276 85.4187 24.9659 85.4187 24.4119ZM92.9773 25.5767L92.9702 22.473H93.3821L97.3026 18.0909H100.307L95.4844 23.4602H94.9517L92.9773 25.5767ZM90.6335 29V14.4545H93.2045V29H90.6335ZM97.4801 29L93.929 24.0355L95.6619 22.2244L100.555 29H97.4801ZM105.159 29.2202C104.468 29.2202 103.846 29.0971 103.292 28.8509C102.742 28.5999 102.307 28.2306 101.985 27.7429C101.667 27.2552 101.509 26.6539 101.509 25.9389C101.509 25.3234 101.623 24.8144 101.85 24.4119C102.077 24.0095 102.387 23.6875 102.78 23.446C103.173 23.2045 103.616 23.0223 104.108 22.8991C104.605 22.7713 105.119 22.679 105.65 22.6222C106.289 22.5559 106.807 22.4967 107.205 22.4446C107.603 22.3878 107.891 22.3026 108.071 22.1889C108.256 22.0705 108.348 21.8883 108.348 21.642V21.5994C108.348 21.0644 108.19 20.6501 107.873 20.3565C107.555 20.063 107.098 19.9162 106.502 19.9162C105.872 19.9162 105.373 20.0535 105.003 20.3281C104.639 20.6027 104.392 20.9271 104.265 21.3011L101.864 20.9602C102.053 20.2973 102.366 19.7434 102.801 19.2983C103.237 18.8485 103.77 18.5123 104.4 18.2898C105.029 18.0625 105.725 17.9489 106.488 17.9489C107.013 17.9489 107.536 18.0104 108.057 18.1335C108.578 18.2566 109.054 18.4602 109.485 18.7443C109.916 19.0237 110.261 19.4048 110.522 19.8878C110.787 20.3707 110.919 20.9744 110.919 21.6989V29H108.448V27.5014H108.363C108.206 27.8045 107.986 28.0885 107.702 28.3537C107.423 28.6141 107.07 28.8248 106.644 28.9858C106.222 29.142 105.728 29.2202 105.159 29.2202ZM105.827 27.331C106.343 27.331 106.791 27.2292 107.169 27.0256C107.548 26.8172 107.839 26.5426 108.043 26.2017C108.251 25.8608 108.355 25.4891 108.355 25.0866V23.8011C108.275 23.8674 108.138 23.929 107.944 23.9858C107.754 24.0426 107.541 24.0923 107.304 24.1349C107.068 24.1776 106.833 24.2154 106.601 24.2486C106.369 24.2817 106.168 24.3101 105.998 24.3338C105.614 24.3859 105.271 24.4711 104.968 24.5895C104.665 24.7079 104.426 24.8736 104.25 25.0866C104.075 25.295 103.988 25.5649 103.988 25.8963C103.988 26.3698 104.16 26.7273 104.506 26.9688C104.852 27.2102 105.292 27.331 105.827 27.331Z" fill="#F5F5F5"/>
<path d="M113.618 29V14.4545H119.073C120.19 14.4545 121.128 14.6629 121.885 15.0795C122.648 15.4962 123.223 16.0691 123.611 16.7983C124.004 17.5227 124.201 18.3466 124.201 19.2699C124.201 20.2027 124.004 21.0312 123.611 21.7557C123.218 22.4801 122.638 23.0507 121.871 23.4673C121.104 23.8793 120.159 24.0852 119.037 24.0852H115.422V21.919H118.682C119.336 21.919 119.871 21.8054 120.287 21.5781C120.704 21.3509 121.012 21.0384 121.211 20.6406C121.414 20.2429 121.516 19.786 121.516 19.2699C121.516 18.7538 121.414 18.2992 121.211 17.9062C121.012 17.5133 120.702 17.2079 120.28 16.9901C119.864 16.7675 119.326 16.6562 118.668 16.6562H116.253V29H113.618ZM129.32 29.2202C128.628 29.2202 128.006 29.0971 127.452 28.8509C126.902 28.5999 126.467 28.2306 126.145 27.7429C125.828 27.2552 125.669 26.6539 125.669 25.9389C125.669 25.3234 125.783 24.8144 126.01 24.4119C126.237 24.0095 126.547 23.6875 126.94 23.446C127.333 23.2045 127.776 23.0223 128.268 22.8991C128.766 22.7713 129.279 22.679 129.81 22.6222C130.449 22.5559 130.967 22.4967 131.365 22.4446C131.763 22.3878 132.052 22.3026 132.232 22.1889C132.416 22.0705 132.509 21.8883 132.509 21.642V21.5994C132.509 21.0644 132.35 20.6501 132.033 20.3565C131.715 20.063 131.259 19.9162 130.662 19.9162C130.032 19.9162 129.533 20.0535 129.163 20.3281C128.799 20.6027 128.553 20.9271 128.425 21.3011L126.024 20.9602C126.214 20.2973 126.526 19.7434 126.962 19.2983C127.397 18.8485 127.93 18.5123 128.56 18.2898C129.189 18.0625 129.885 17.9489 130.648 17.9489C131.173 17.9489 131.696 18.0104 132.217 18.1335C132.738 18.2566 133.214 18.4602 133.645 18.7443C134.076 19.0237 134.421 19.4048 134.682 19.8878C134.947 20.3707 135.08 20.9744 135.08 21.6989V29H132.608V27.5014H132.523C132.366 27.8045 132.146 28.0885 131.862 28.3537C131.583 28.6141 131.23 28.8248 130.804 28.9858C130.383 29.142 129.888 29.2202 129.32 29.2202ZM129.987 27.331C130.503 27.331 130.951 27.2292 131.33 27.0256C131.708 26.8172 132 26.5426 132.203 26.2017C132.411 25.8608 132.516 25.4891 132.516 25.0866V23.8011C132.435 23.8674 132.298 23.929 132.104 23.9858C131.914 24.0426 131.701 24.0923 131.464 24.1349C131.228 24.1776 130.993 24.2154 130.761 24.2486C130.529 24.2817 130.328 24.3101 130.158 24.3338C129.774 24.3859 129.431 24.4711 129.128 24.5895C128.825 24.7079 128.586 24.8736 128.411 25.0866C128.235 25.295 128.148 25.5649 128.148 25.8963C128.148 26.3698 128.321 26.7273 128.666 26.9688C129.012 27.2102 129.452 27.331 129.987 27.331ZM140.236 14.4545V29H137.665V14.4545H140.236ZM146.019 29.2202C145.328 29.2202 144.705 29.0971 144.151 28.8509C143.602 28.5999 143.166 28.2306 142.844 27.7429C142.527 27.2552 142.368 26.6539 142.368 25.9389C142.368 25.3234 142.482 24.8144 142.709 24.4119C142.936 24.0095 143.247 23.6875 143.64 23.446C144.033 23.2045 144.475 23.0223 144.968 22.8991C145.465 22.7713 145.979 22.679 146.509 22.6222C147.148 22.5559 147.667 22.4967 148.064 22.4446C148.462 22.3878 148.751 22.3026 148.931 22.1889C149.115 22.0705 149.208 21.8883 149.208 21.642V21.5994C149.208 21.0644 149.049 20.6501 148.732 20.3565C148.415 20.063 147.958 19.9162 147.361 19.9162C146.731 19.9162 146.232 20.0535 145.863 20.3281C145.498 20.6027 145.252 20.9271 145.124 21.3011L142.723 20.9602C142.913 20.2973 143.225 19.7434 143.661 19.2983C144.096 18.8485 144.629 18.5123 145.259 18.2898C145.889 18.0625 146.585 17.9489 147.347 17.9489C147.873 17.9489 148.396 18.0104 148.917 18.1335C149.437 18.2566 149.913 18.4602 150.344 18.7443C150.775 19.0237 151.121 19.4048 151.381 19.8878C151.646 20.3707 151.779 20.9744 151.779 21.6989V29H149.307V27.5014H149.222C149.066 27.8045 148.846 28.0885 148.561 28.3537C148.282 28.6141 147.929 28.8248 147.503 28.9858C147.082 29.142 146.587 29.2202 146.019 29.2202ZM146.686 27.331C147.203 27.331 147.65 27.2292 148.029 27.0256C148.408 26.8172 148.699 26.5426 148.902 26.2017C149.111 25.8608 149.215 25.4891 149.215 25.0866V23.8011C149.134 23.8674 148.997 23.929 148.803 23.9858C148.614 24.0426 148.4 24.0923 148.164 24.1349C147.927 24.1776 147.693 24.2154 147.461 24.2486C147.229 24.2817 147.027 24.3101 146.857 24.3338C146.473 24.3859 146.13 24.4711 145.827 24.5895C145.524 24.7079 145.285 24.8736 145.11 25.0866C144.935 25.295 144.847 25.5649 144.847 25.8963C144.847 26.3698 145.02 26.7273 145.365 26.9688C145.711 27.2102 146.151 27.331 146.686 27.331ZM159.123 29.2131C158.033 29.2131 157.098 28.974 156.317 28.4957C155.541 28.0175 154.942 27.357 154.52 26.5142C154.104 25.6667 153.895 24.6913 153.895 23.5881C153.895 22.4801 154.108 21.5024 154.534 20.6548C154.961 19.8026 155.562 19.1397 156.338 18.6662C157.12 18.188 158.043 17.9489 159.108 17.9489C159.994 17.9489 160.777 18.1122 161.459 18.4389C162.146 18.7609 162.693 19.2178 163.1 19.8097C163.507 20.3968 163.739 21.0833 163.796 21.8693H161.338C161.239 21.3437 161.002 20.9058 160.628 20.5554C160.259 20.2003 159.764 20.0227 159.144 20.0227C158.618 20.0227 158.157 20.1648 157.759 20.4489C157.361 20.7282 157.051 21.1307 156.828 21.6562C156.611 22.1818 156.502 22.8116 156.502 23.5455C156.502 24.2888 156.611 24.928 156.828 25.4631C157.046 25.9934 157.352 26.4029 157.745 26.6918C158.142 26.9759 158.609 27.1179 159.144 27.1179C159.523 27.1179 159.861 27.0469 160.159 26.9048C160.462 26.758 160.716 26.5473 160.919 26.2727C161.123 25.9981 161.263 25.6643 161.338 25.2713H163.796C163.734 26.0431 163.507 26.7273 163.114 27.3239C162.721 27.9157 162.186 28.3797 161.509 28.7159C160.832 29.0473 160.036 29.2131 159.123 29.2131ZM170.737 29.2131C169.643 29.2131 168.698 28.9858 167.903 28.5312C167.112 28.072 166.504 27.4233 166.077 26.5852C165.651 25.7424 165.438 24.7505 165.438 23.6094C165.438 22.4872 165.651 21.5024 166.077 20.6548C166.508 19.8026 167.11 19.1397 167.881 18.6662C168.653 18.188 169.56 17.9489 170.602 17.9489C171.274 17.9489 171.908 18.0578 172.505 18.2756C173.106 18.4886 173.637 18.8201 174.096 19.2699C174.56 19.7197 174.924 20.2926 175.19 20.9886C175.455 21.6799 175.587 22.5038 175.587 23.4602V24.2486H166.646V22.5156H173.123C173.118 22.0232 173.012 21.5852 172.803 21.2017C172.595 20.8134 172.304 20.508 171.93 20.2855C171.56 20.063 171.129 19.9517 170.637 19.9517C170.112 19.9517 169.65 20.0795 169.252 20.3352C168.854 20.5862 168.544 20.9176 168.322 21.3295C168.104 21.7367 167.993 22.1842 167.988 22.6719V24.1847C167.988 24.8191 168.104 25.3636 168.336 25.8182C168.568 26.268 168.892 26.6136 169.309 26.8551C169.726 27.0919 170.213 27.2102 170.772 27.2102C171.146 27.2102 171.485 27.1581 171.788 27.054C172.091 26.9451 172.353 26.7865 172.576 26.5781C172.799 26.3698 172.967 26.1117 173.08 25.804L175.481 26.0739C175.329 26.7083 175.04 27.2623 174.614 27.7358C174.193 28.2045 173.653 28.5691 172.995 28.8295C172.337 29.0852 171.584 29.2131 170.737 29.2131Z" fill="#FFD60A"/>
<rect x="1.5" y="1.5" width="32.8017" height="30.2444" rx="8.5" stroke="#D8D1D1" stroke-width="3"/>
<path d="M20.4251 19.5456V19.5193C20.4251 16.9264 21.193 14.3915 22.632 12.2345C24.071 10.0776 26.1167 8.39511 28.5108 7.39944C30.905 6.40378 33.5404 6.13951 36.0846 6.63998C38.6287 7.14045 40.9677 8.38324 42.8063 10.2115C44.253 9.49753 45.8689 9.19732 47.4754 9.34409C49.082 9.49086 50.6167 10.0789 51.91 11.0432C53.2034 12.0076 54.2049 13.3106 54.8041 14.8085C55.4032 16.3064 55.5767 17.9407 55.3052 19.531C55.7043 19.568 56.0915 19.6869 56.4427 19.8803C56.7938 20.0737 57.1013 20.3373 57.346 20.6548C57.5907 20.9723 57.7673 21.3368 57.8648 21.7256C57.9624 22.1144 57.9787 22.5192 57.9129 22.9146C56.5944 30.8456 53.3334 35.8655 48.1355 37.9773V39.9375C48.1355 41.0979 47.6745 42.2108 46.854 43.0313C46.0335 43.8518 44.9206 44.3128 43.7602 44.3128H32.0926C30.9322 44.3128 29.8194 43.8518 28.9988 43.0313C28.1783 42.2108 27.7173 41.0979 27.7173 39.9375V37.9773C22.5194 35.8655 19.2584 30.8456 17.9399 22.9146C17.8763 22.5297 17.8905 22.1359 17.9818 21.7566C18.073 21.3773 18.2394 21.0202 18.4711 20.7063C18.7029 20.3925 18.9952 20.1283 19.3308 19.9294C19.6664 19.7305 20.0385 19.601 20.4251 19.5485V19.5456ZM23.342 19.5193H26.2589C26.2589 17.5853 27.0272 15.7305 28.3947 14.3629C29.7623 12.9954 31.6171 12.2271 33.5511 12.2271C35.4851 12.2271 37.3399 12.9954 38.7074 14.3629C40.075 15.7305 40.8433 17.5853 40.8433 19.5193H43.7602C43.7602 16.8117 42.6846 14.215 40.77 12.3004C38.8554 10.3858 36.2587 9.31023 33.5511 9.31023C30.8435 9.31023 28.2467 10.3858 26.3322 12.3004C24.4176 14.215 23.342 16.8117 23.342 19.5193ZM29.1758 19.5193H37.9264C37.9264 18.3589 37.4654 17.246 36.6449 16.4255C35.8244 15.605 34.7115 15.144 33.5511 15.144C32.3907 15.144 31.2778 15.605 30.4573 16.4255C29.6367 17.246 29.1758 18.3589 29.1758 19.5193ZM49.2031 19.5193H52.327C52.5473 18.6573 52.5678 17.7564 52.3871 16.8852C52.2064 16.0141 51.8292 15.1957 51.2843 14.4924C50.7393 13.7891 50.0411 13.2194 49.2427 12.8269C48.4442 12.4343 47.5667 12.2292 46.677 12.2271C45.977 12.2271 45.3119 12.3496 44.6936 12.5742C45.2099 13.4026 45.6357 14.2952 45.9624 15.2315C46.518 15.0937 47.1018 15.1221 47.6414 15.3131C48.1809 15.5041 48.6526 15.8494 48.9977 16.306C49.3428 16.7627 49.5463 17.3106 49.5828 17.8818C49.6193 18.4531 49.4872 19.0224 49.2031 19.5193ZM45.2186 38.479H30.6342V39.9375C30.6342 40.3243 30.7879 40.6952 31.0614 40.9688C31.3349 41.2423 31.7058 41.3959 32.0926 41.3959H43.7602C44.147 41.3959 44.5179 41.2423 44.7914 40.9688C45.065 40.6952 45.2186 40.3243 45.2186 39.9375V38.479ZM29.6075 35.5622H46.2454C50.8715 34.0746 53.8001 29.8684 55.0368 22.4362H20.816C22.0527 29.8684 24.9813 34.0746 29.6075 35.5622Z" fill="#FFD60A"/>
</svg>
